<svg viewBox="0 0 279 38" fill="none" xmlns="http://www.w3.org/2000/svg"><defs><clipPath id="a"><rect rx="0" width="32" height="37" transform="translate(.5 .5)" fill="#fff" fill-opacity="0"/></clipPath><clipPath id="b"><rect rx="0" width="100" height="17" transform="translate(89.5 10.5)" fill="#fff" fill-opacity="0"/></clipPath></defs><path d="M0 0h33v38h-33z"/><path d="M0 0h33v38h-33z"/><rect rx="0" width="32" height="37" transform="translate(.5 .5)"/><g clip-path="url(#a)"><path d="M6.01 20.93v-2.28c6.62-.93 13.29-1.38 19.97-1.35 0 .61 0 1.23-.06 1.84 1.9-.86 3.9-1.48 5.95-1.84a16.83 16.83 0 0 0-6.77-8.28 16.3 16.3 0 0 0-19.93 2.07 17 17 0 0 0-4.99 9.51l5.83.33Zm20.96 3.55c-1.15 1.29-1.37 1.21-1.37 3.48v9.28a16.65 16.65 0 0 0 5.42-6.06 17.14 17.14 0 0 0 1.98-7.95c-.02-1.05-.12-2.1-.32-3.13a32.68 32.68 0 0 0-5.71 4.38Zm-20.68 1.5s-3.75-1.45-5.14-1.85a9.18 9.18 0 0 0-1.15-.28 16.93 16.93 0 0 0 8.59 14.15l-2.3-12.02Z" fill="#FDC305"/><path d="M26.03 17.29a92.75 92.75 0 0 0-1.38-16.64s-.14-1.3-.89-.24a14.5 14.5 0 0 0-1.18 3.98 68.56 68.56 0 0 0-12.65.34c-.78-2.71-2.16-3.98-2.82-3.72-.67.25-.72 3.34-.72 3.34l-.32 14.25c6.61-.92 13.29-1.35 19.96-1.31Z" fill="#F06351"/><path d="M12.29 14.14c0-.09.99.69 1.39.93.41.24.61.42.61.6 0 .17-.27.34-.63.34-.35 0-.9-.12-.99-.27h1.22c-.6-.46-1.14-1-1.6-1.6Zm7.4.11-1.08 1.35c0 .06-.16.35.18.3a7.1 7.1 0 0 0 1.21-.29c.11 0 .07-.2-.11-.18-.18.02-.68.05-.99.11l.83-1.27s.07-.13-.04-.02Zm-3.11 6.15c.46-.2.84-.56 1.08-1.01.28-.65 0-.92-.43-1.01a2.4 2.4 0 0 0-1.73.35c-.38.36-.33.72-.04 1.01.34.27.72.49 1.12.66Z" fill="#000"/><path d="M16.19 21.67c-.11.23-.27.43-.46.6-.28.24-.63.37-.99.39a2.06 2.06 0 0 1-1.45-.44c-.2-.12-.38-.27-.53-.44-.1-.11-.22-.2-.36-.26 0 0 .75 4.14 2.55 4.8 1.8.65 2.12-.76 2.18-1.15a5.74 5.74 0 0 0-.81-3.26c-.02-.31-.03-.11-.13-.24Z" fill="#F06351"/><path d="M14.56 22.82c-.46-.07-.9-.23-1.3-.47a3.42 3.42 0 0 1-1.05-1.07l.02-.05c0-.02.01-.03.03-.05l.04-.03.06-.01a.1.1 0 0 1 .05.01l.04.03c.5.7 1.26 1.18 2.09 1.32.33-.03.65-.13.93-.31s.52-.42.69-.7l.14-.2.1.22s.36.76.99.8c.62.04 1.04-.41 1.59-1.29l.05-.03.05-.01.05.01.05.03c.03.02.05.05.06.09.01.04.01.08-.01.11-.64 1.01-1.26 1.46-1.86 1.42a1.5 1.5 0 0 1-.64-.26c-.2-.13-.36-.31-.47-.51a2.25 2.25 0 0 1-1.7.95Z" fill="#000"/><path d="M25.98 19.11a57.94 57.94 0 0 0-5.02 5.25 31.44 31.44 0 0 1-5.24 4.94c-.22-.54-1.6-1.53-1.6-1.53s-3.1-2.16-5.13-3.86a32.83 32.83 0 0 1-3.1-3.03l-1.98-.11a22.38 22.38 0 0 0 11.88 8.89c.85-.14 3.24-1.88 5.02-3.29a58.15 58.15 0 0 0 5.89-5.96c.49-.59.88-1.28 1.13-2.02-1.09.4-1.85.72-1.85.72Z" fill="#F06351"/></g><path d="M89 10h101v18h-101z"/><path d="M89 10h101v18h-101z"/><path d="M89 10h101v18h-101z"/><rect rx="0" width="100" height="17" transform="translate(89.5 10.5)"/><g clip-path="url(#b)" fill="#111"><path d="M90.26 26.53a6.78 6.78 0 0 1-1.26-4.3v-6.39a6.9 6.9 0 0 1 1.18-4.38c.87-1 2.21-1.46 4.19-1.46 1.97 0 3.24.46 4.03 1.3a5.45 5.45 0 0 1 1.19 3.77v1.54h-3.88v-1.77a3.85 3.85 0 0 0-.23-1.54 1.1 1.1 0 0 0-.46-.47c-.2-.11-.42-.16-.65-.14-.55 0-.95.15-1.11.54a4.58 4.58 0 0 0-.23 1.69v8.23c-.05.56.06 1.11.31 1.61.16.39.55.54 1.11.54.55 0 .87-.15 1.03-.54a4.2 4.2 0 0 0 .23-1.61v-1.85h3.88v1.54a5.77 5.77 0 0 1-1.19 3.85c-.79.92-2.13 1.38-4.03 1.38-1.9-.07-3.32-.54-4.11-1.54Zm13.99-16.3h4.5l3.32 17.53h-3.63l-.64-3.69h-2.6l-.64 3.69h-3.71l3.4-17.53Zm3.24 11.53-.95-6.84-.95 6.84h1.9Zm7.35-8.61h-2.69v-2.92h9.41v2.84h-2.69v14.69h-4.03v-14.61Zm13.91-2.92h6.95v1.84h-4.5v5.77h3.63v1.77h-3.63v6.46h4.5v1.77h-7.03v-17.61h.08Zm9.01 0h1.74l5.13 11.61v-11.61h2.06v17.53h-1.58l-5.22-12v12h-2.13v-17.53Zm11.3 0h6.95v1.84h-4.5v5.77h3.63v1.77h-3.63v6.46h4.5v1.77h-6.95v-17.61Zm9.01 0h3.63c1.43-.1 2.85.28 4.03 1.07.87.7 1.27 1.93 1.27 3.54 0 2.23-.71 3.62-2.21 4.08l2.52 8.77h-2.45l-2.37-8.23h-1.97v8.23h-2.53v-17.46h.08Zm3.47 7.53c.82.07 1.63-.15 2.3-.61.47-.39.71-1.15.71-2.31a4.87 4.87 0 0 0-.24-1.69 1.94 1.94 0 0 0-.87-.92 3.57 3.57 0 0 0-1.74-.31h-1.1v5.77h.94v.07Zm8.62 8.7a7.64 7.64 0 0 1-1.11-4.46v-5.85a12.3 12.3 0 0 1 .4-3.31c.26-.81.79-1.51 1.5-2 .88-.51 1.9-.75 2.92-.69 1.66 0 2.85.38 3.56 1.23a5.8 5.8 0 0 1 1.11 3.85v.61h-2.37v-.54c0-.64-.05-1.28-.16-1.92-.07-.4-.3-.76-.64-1a2.46 2.46 0 0 0-1.5-.38 2.37 2.37 0 0 0-1.58.46c-.18.15-.34.34-.44.55-.11.21-.18.44-.19.68-.1.69-.16 1.38-.16 2.07v6.54c-.06 1 .11 2 .48 2.93.31.61.95.84 1.89.84a1.9 1.9 0 0 0 1.9-.92 6.8 6.8 0 0 0 .55-3.08v-1.23h-2.29v-1.77h4.59v8.69h-1.59l-.23-2a3.27 3.27 0 0 1-3.24 2.24 4.1 4.1 0 0 1-3.4-1.54Zm13.51-4.85-3.87-11.31h2.37l2.77 8.46 2.68-8.46h2.38l-3.88 11.31v6.15h-2.37v-6.15h-.08Z"/></g></svg>