<svg viewBox="0 0 111.426 231.26" fill="none" xmlns="http://www.w3.org/2000/svg"><path d="M24.6 224.28q12.38 6.98 30.83 6.98 20.17 0 32.48-8.28 3.7-2.49 6.8-5.58 7.19-7.19 11.11-17.66 5.6-14.97 5.6-35.14 0-15.38-3.96-27-3.9-11.62-11.08-19.14-2.64-2.82-5.72-5.01-5.22-3.72-11.71-5.65 8.28-2.52 14.68-7.46 5.07-3.92 8.97-9.36 8.82-12.3 8.82-32.74 0-18.25-6.15-31.24-3.35-7.1-8.53-12.4-4.35-4.45-10-7.63-12.3-6.97-31.03-6.97-18.46 0-30.97 6.97-6.11 3.42-10.7 8.28-4.76 5.03-7.89 11.61-6.15 12.85-6.15 31.04v7.58h29.66v-4.78q.55-15.93 5.61-26.12 1.26-2.56 3.17-4.48 5.73-5.77 17.27-5.77 12.75 0 18.5 6.35 1.19 1.3 2.07 2.88 5.2 9.23 5.2 24.68 0 18.18-7.04 26.04-6.97 7.8-22.9 8.34h-3.97v30.01h2.05q1.3 0 2.19.28 12.32.81 19.1 7.36 2.28 2.21 3.94 5.08 6.63 11.34 6.63 29.25 0 12.31-1.98 21.88-1.99 9.5-7.59 14.7-5.54 5.12-16.48 5.12-10.39 0-15.85-4.71-.42-.37-.82-.76-4.75-4.65-6.7-12.16-2.12-8.14-2.4-18.19v-5.05h-29.66v7.58q0 17.91 6.15 31.11 3.45 7.36 8.84 12.81 4.21 4.26 9.61 7.35Z" fill="#F2F2F2" fill-rule="evenodd"/></svg>