<svg viewBox="0 0 112.246 228.73" fill="none" xmlns="http://www.w3.org/2000/svg"><path d="M0 207.47v21.26h106.98v-25.23h-71.71l52.09-79.5q6.7-10.05 12.3-19.55 5.61-9.57 9.1-20.44 3.48-10.94 3.48-25.5 0-27.48-13.47-43-1.62-1.88-3.45-3.53-13.27-11.98-37.36-11.98-20.16 0-32.33 8.13-3.84 2.54-7.01 5.75-6.88 6.95-10.63 17.01-5.47 14.7-5.47 35.14v7.86h29.95v-7.59q0-10.87 2.25-20.37 2.26-9.57 8.14-15.45.7-.7 1.48-1.33 5.67-4.55 14.99-4.55 8.82 0 13.92 4.36 2.21 1.89 3.72 4.6 5.06 8.95 5.06 24.68 0 12.58-3.49 22.21-1.66 4.6-3.78 8.99-2.32 4.8-5.18 9.33-5.46 8.69-11.89 18.8l-57.69 89.9Z" fill="#F2F2F2" fill-rule="evenodd"/></svg>